<svg width="200" height="49" viewBox="0 0 200 49" fill="none" xmlns="http://www.w3.org/2000/svg">
<g style="mix-blend-mode:screen">
<path d="M22.5422 6.53223H23.8332V14.353L21.5492 14.6463L20.0596 15.0373L18.3714 15.7216L16.7825 16.6992L15.4916 17.8723L14.7964 18.5567L13.8034 19.9253L12.9096 21.7827L12.4131 23.4447L12.2145 24.52V27.0618L12.5124 28.7237L13.1082 30.4833L14.002 32.1453L14.8957 33.3184L15.8888 34.3937L17.1797 35.3713L18.57 36.1534L19.6624 36.6422L21.2512 37.131L22.5422 37.3265H24.9255L26.713 37.0332L28.2026 36.5444L29.7915 35.7624L30.4866 35.3713L35.9484 40.7481L35.5511 41.1392L33.863 42.2145L32.3734 42.9966L30.3873 43.7787L28.3019 44.3652L26.6137 44.6585L24.429 44.854H23.8332V48.5689L21.5492 48.4711L19.4638 48.1779L16.9811 47.5913L14.6971 46.8092L12.2145 45.6361L10.6256 44.6585L9.23535 43.6809L7.94439 42.6055L6.65343 41.4324L5.56107 40.2593L4.27011 38.5974L3.07845 36.74L2.18471 35.0781L1.19166 32.6341L0.595829 30.5811L0.19861 28.6259L0 26.964V25.9864H4.76663V24.7155L4.96524 22.3693L5.46177 20.2186L6.1569 18.1656L7.05065 16.3082L8.04369 14.744L8.93744 13.5709L10.1291 12.2023L10.9235 11.4202L12.0159 10.5404L13.5055 9.46502L15.2929 8.48742L17.0804 7.70534L18.8679 7.11878L20.7547 6.72775L22.5422 6.53223Z" fill="#B5B5B5"/>
<path d="M25.6206 0.568848H27.5074L29.6921 0.862127L31.5789 1.25317L33.9622 2.03524L35.9483 2.91508L37.6365 3.79492L38.8282 4.57699L40.0198 5.45683L41.0129 6.33667L41.8073 7.02099L42.8997 8.09634L43.7934 9.1717L44.7864 10.4426L45.8788 12.2022L46.8718 14.0597L47.7656 16.4059L48.3614 18.5566L48.7586 20.9029L48.8579 22.6625V24.0312L48.7586 24.1289H35.4518L35.0546 22.5648L34.4587 21.0006L33.6643 19.5342L32.8699 18.5566L32.1747 17.6768L31.1817 16.8947L30.1886 16.2104L29.1956 15.6238L27.5074 14.9395L25.8192 14.5485L25.6206 14.353V0.568848Z" fill="#DDDCDC"/>
<path d="M22.5422 6.53223H23.8331V14.353L21.5491 14.6463L20.0596 15.0373L18.3714 15.7216L16.7825 16.6992L15.4915 17.8723L14.7964 18.5567L13.8033 19.9253L12.9096 21.7827L12.4131 23.4447L12.2145 24.52L12.1152 26.2797L12.0159 25.9864H4.7666V24.7155L4.96521 22.3693L5.46174 20.2186L6.15687 18.1656L7.05061 16.3082L8.04366 14.744L8.93741 13.5709L10.1291 12.2023L10.9235 11.4202L12.0159 10.5404L13.5054 9.46502L15.2929 8.48742L17.0804 7.70534L18.8679 7.11878L20.7547 6.72775L22.5422 6.53223Z" fill="#C7C7C7"/>
<path d="M23.138 18.2632H23.8331V25.9862L28.6991 25.8884H31.1817L31.6782 25.9862L31.5789 27.2571L31.1817 28.7235L30.4865 30.0921L29.6921 31.0697L28.8977 31.8518L27.5074 32.7316L26.415 33.2204L25.3227 33.5137L24.6276 33.6115H23.138L21.6484 33.3182L20.3575 32.8294L18.9672 31.9495L17.5769 30.5809L16.6832 29.1145L16.1866 27.6481L15.988 25.9862L16.1866 24.3243L16.6832 22.8579L17.279 21.7825L17.9741 20.9027L18.9672 19.9251L20.3575 19.0453L21.6484 18.5565L23.138 18.2632Z" fill="#B5B5B5"/>
<path d="M35.6504 25.8887H46.6732L47.1698 25.9864L47.0705 27.6483L46.6732 30.0923L45.9781 32.5363L45.0844 34.687L43.8927 36.9355L42.8997 38.4019L41.8073 39.7705L41.4101 40.2593L41.0129 40.0638L33.4657 32.6341L33.565 32.2431L34.3594 30.8744L35.0546 29.017L35.3525 27.6483L35.5511 25.9864L35.6504 25.8887Z" fill="#626262"/>
<path d="M85.6008 14.6465H87.8848L89.8709 15.0375L91.3605 15.6241L92.5521 16.3084L93.4459 17.0905L93.6445 17.4815V18.3614L93.3465 18.9479L92.85 19.3389L92.6514 19.4367H91.5591L89.9702 18.4591L88.5799 17.9703L87.3883 17.7748H86.0973L84.6077 18.0681L83.4161 18.5569L82.3237 19.2412L81.5293 19.9255L80.8341 20.9031L80.2383 22.0762L79.9404 23.1516L79.8411 23.7381V25.009L80.139 26.3776L80.6355 27.5508L81.43 28.6261L82.3237 29.506L83.714 30.288L84.707 30.6791L85.6008 30.8746H87.8848L89.3744 30.4836L90.566 29.897L91.4598 29.3104L92.2542 29.2127L93.0486 29.506L93.5452 30.0925L93.6445 30.288V31.1679L93.3465 31.7544L92.6514 32.341L91.2611 33.1231L90.0695 33.6119L88.282 34.0029L87.4876 34.1007H85.998L84.6077 33.9051L82.9195 33.4163L81.0327 32.4387L79.9404 31.5589L78.848 30.4836L77.9543 29.2127L77.1599 27.5508L76.7626 26.0844L76.6633 25.4978V23.2493L77.0605 21.4897L77.6564 20.0233L78.5501 18.6546L79.6425 17.4815L80.3376 16.7972L81.8272 15.8196L83.4161 15.1353L85.0049 14.7442L85.6008 14.6465Z" fill="#C7C7C7"/>
<path d="M125.72 15.2329H126.812L127.408 15.6239L127.805 16.2105L133.764 31.8521L133.863 32.1453V33.0252L133.466 33.7095L132.671 34.1005L131.778 34.0028L131.281 33.7095L130.685 32.5364L129.593 29.7013L122.939 29.6036L122.642 30.5812L121.549 33.3184L121.152 33.8072L120.457 34.1005L119.563 34.0028L119.067 33.7095L118.669 33.0252V32.1453L124.032 18.0679L124.826 16.015L125.323 15.4284L125.72 15.2329ZM126.216 20.903L125.422 22.8582L124.131 26.2798L124.032 26.6708H128.5L128.203 25.6932L126.415 21.0007L126.216 20.903Z" fill="#C7C7C7"/>
<path d="M167.925 14.9395H168.52L169.116 15.4283L170.308 17.0902L175.472 24.1289L175.77 24.0311L177.061 22.2714L178.054 20.9028L179.345 19.1431L180.338 17.7745L181.629 16.0148L182.324 15.135L182.721 14.9395L183.416 15.0372L183.813 15.4283L183.913 15.6238V33.8071L183.515 34.2959L182.721 34.3936L182.224 34.1003L182.026 33.7093V19.0454L181.529 19.5342L176.365 26.5729L175.968 26.8661H175.174L174.677 26.4751L173.486 24.8132L172.095 22.9557L169.513 19.4364L169.116 19.0454V33.7093L168.62 34.2959L167.925 34.3936L167.428 34.1003L167.13 33.6116V15.8193L167.428 15.2327L167.925 14.9395Z" fill="#E9E9E9"/>
<path d="M188.878 14.8418H199.206L199.702 15.1351L200 15.5261V16.1127L199.702 16.6015L199.206 16.797H190.169V23.6402H197.815L198.411 23.8357L198.808 24.2267V25.0088L198.411 25.4976L198.213 25.5954H190.169V32.4385H199.206L199.702 32.7318L200 33.1229V33.7094L199.702 34.1982L199.206 34.3937H188.878L188.381 34.1005L188.183 33.7094V15.5261L188.679 14.9396L188.878 14.8418Z" fill="#E9E9E9"/>
<path d="M105.263 15.1353H117.279L117.974 15.3308L118.57 15.9173L118.669 16.2106V17.0904L118.272 17.7748L117.478 18.1658H112.81V33.0253L112.413 33.7096L111.619 34.1006L110.725 34.0029L110.129 33.6118L109.831 33.0253V18.1658H105.065L104.27 17.677L103.972 17.0904V16.2106L104.27 15.7218L104.866 15.233L105.263 15.1353Z" fill="#C7C7C7"/>
<path d="M137.14 14.8418H143.396L144.786 15.1351L145.978 15.7216L146.971 16.5037L147.766 17.4813L148.262 18.4589L148.659 20.0231V21.1962L148.262 22.6626L147.766 23.6402L146.971 24.6178L145.978 25.3998L144.985 25.8886L143.992 26.1819L143.297 26.2797H138.431V33.6117L138.133 34.1005L137.636 34.3937L136.941 34.296L136.544 33.9049L136.445 33.7094V15.5261L136.941 14.9396L137.14 14.8418ZM138.431 16.797V24.3245H143.595L144.687 23.9334L145.581 23.2491L146.276 22.3693L146.673 21.0984V20.0231L146.375 19.0455L145.879 18.2634L145.482 17.7746L144.389 17.0903L143.198 16.797H138.431Z" fill="#E9E9E9"/>
<path d="M56.4052 15.1353L57.1997 15.233L57.7955 15.6241L58.1927 16.4061V31.0701H65.8392L66.5343 31.3634L67.0308 31.9499L67.1301 32.1454V33.0253L66.7329 33.6118L66.2364 34.0029L65.9385 34.1006H56.3059L55.7101 33.8074L55.2136 33.2208L55.1143 32.8298V16.4061L55.5115 15.6241L56.1073 15.233L56.4052 15.1353Z" fill="#C7C7C7"/>
<path d="M30.3873 35.3711L31.0824 35.9577L35.9484 40.7479L35.5512 41.1389L33.863 42.2143L32.3734 42.9963L30.3873 43.7784L28.3019 44.365L26.6137 44.6583L25.72 44.756H23.9325V37.5218L26.713 37.033L28.2026 36.5442L29.7915 35.7621L30.3873 35.3711Z" fill="#8A8989"/>
<path d="M150.844 14.9395L151.539 15.0372L152.234 15.8193L154.816 19.3386L156.207 21.1961L157.498 22.9557L157.795 22.858L158.789 21.4894L160.179 19.6319L161.47 17.8722L162.86 16.0148L163.555 15.135L163.952 14.9395L164.647 15.0372L165.144 15.6238V16.2103L164.449 17.2857L163.158 18.9476L162.165 20.3162L159.384 24.0311L158.689 25.0087L158.59 33.7093L158.292 34.1981L157.895 34.3936H157.299L156.802 34.0026L156.604 33.5138V25.1065L155.313 23.3468L151.142 17.7745L150.149 16.4058L150.05 15.7215L150.447 15.135L150.844 14.9395Z" fill="#E9E9E9"/>
<path d="M71.4002 15.1353L72.1947 15.233L72.8898 15.7218L73.1877 16.4061V32.8298L72.8898 33.5141L72.3933 33.9051L71.8967 34.1006L71.003 34.0029L70.3079 33.4163L70.1093 32.9275V16.3084L70.4072 15.7218L71.003 15.233L71.4002 15.1353Z" fill="#C7C7C7"/>
<path d="M99.4042 15.1353L100.298 15.3308L100.894 15.8196L101.092 16.2106V33.0253L100.695 33.6118L100.199 34.0029L99.2056 34.1006L98.5104 33.7096L98.1132 33.123L98.0139 32.732V16.5039L98.3118 15.8196L98.8084 15.3308L99.4042 15.1353Z" fill="#C7C7C7"/>
<path d="M23.138 18.2632H23.8332V25.9862H16.0874V24.9108L16.4846 23.3467L17.2791 21.7825L17.9742 20.9027L18.9672 19.9251L20.3575 19.0453L21.6485 18.5565L23.138 18.2632Z" fill="#C7C7C7"/>
<path d="M28.6991 25.8887H31.1818L31.6783 25.9864L31.579 27.2573L31.1818 28.7237L30.4866 30.0923L29.6922 31.0699L29.4936 31.2655L29.0963 31.1677L23.9325 26.0842V25.9864L28.6991 25.8887Z" fill="#626262"/>
<path d="M23.9325 26.1821L24.3297 26.3776L29.3943 31.3634L28.5005 32.1455L27.1103 32.9275L26.1172 33.3186L25.3228 33.5141H23.9325V26.1821Z" fill="#8A8989"/>
<path d="M25.6206 18.5566L26.5143 18.7522L27.9046 19.4365L28.7984 20.1208L30.1886 21.4894L31.0824 23.1513L31.3803 24.1289H25.6206V18.5566Z" fill="#DDDCDC"/>
</g>
</svg>
