<svg width="200" height="48" viewBox="0 0 200 48" fill="none" xmlns="http://www.w3.org/2000/svg">
<path fill-rule="evenodd" clip-rule="evenodd" d="M0 17.2037C0 26.6356 7.67339 34.309 17.1053 34.309C26.5372 34.309 34.2106 26.6356 34.2106 17.2037C34.2106 7.77178 26.5372 0.0983887 17.1053 0.0983887C7.67339 0.0983887 0 7.77178 0 17.2037ZM3.25515 17.2037C3.25515 9.56559 9.46827 3.35247 17.1064 3.35247C24.7445 3.35247 30.9576 9.56559 30.9576 17.2037C30.9576 24.8408 24.7445 31.0539 17.1064 31.0539C9.46827 31.0539 3.25515 24.8408 3.25515 17.2037Z" fill="#AEAEAE"/>
<path fill-rule="evenodd" clip-rule="evenodd" d="M28.9436 3.48292C29.0307 3.89273 29.0362 4.3157 28.9597 4.72763C28.8832 5.13956 28.7262 5.53237 28.4978 5.88357C28.2693 6.23476 27.9738 6.53747 27.6282 6.77434C27.2826 7.01122 26.8937 7.17762 26.4838 7.26402C26.0741 7.35071 25.6514 7.35587 25.2398 7.27919C24.8282 7.20252 24.4357 7.04552 24.0847 6.81715C23.7337 6.58879 23.4312 6.29354 23.1943 5.94825C22.9575 5.60296 22.791 5.2144 22.7043 4.80475C22.6176 4.39511 22.6124 3.9724 22.6891 3.56077C22.7658 3.14913 22.9228 2.75663 23.1511 2.40568C23.3795 2.05472 23.6748 1.75217 24.0201 1.51532C24.3653 1.27846 24.7539 1.11194 25.1635 1.02525C25.9907 0.850087 26.8536 1.01059 27.5624 1.47146C28.2712 1.93233 28.7681 2.65584 28.9436 3.48292ZM1.39612 10.2808C1.39612 10.2808 23.4221 3.732 26.131 11.7143C28.8388 19.6999 6.41301 47.8888 6.41301 47.8888C6.41301 47.8888 31.0164 14.8466 16.7803 9.92374C12.8442 8.56075 1.39612 10.2808 1.39612 10.2808ZM85.2059 7.87978H81.3585V18.5753C81.3585 20.4525 80.9052 23.6071 77.8671 23.6071C75.3827 23.6071 74.3233 22.0368 74.3233 18.3583V7.87978H72.3157C70.8298 7.87978 69.6121 9.21819 69.5801 10.8645V19.0628C69.5801 24.4175 72.4087 27.2439 77.7612 27.2439C82.6605 27.2439 85.7051 24.1833 85.7051 19.252V7.87978H85.2059ZM100.515 27.0472H89.499V10.9158C89.5033 9.25346 90.7273 7.89475 92.2186 7.89475H94.0146V23.5248H100.514L100.515 27.0472ZM122.407 27.0472H117.894V10.9158C117.899 9.25346 119.121 7.89475 120.615 7.89475H122.409V23.5248L122.407 27.0472ZM62.6443 7.83168C61.7175 7.83168 60.889 8.43994 60.533 9.38388C60.4838 9.47154 57.3217 17.3053 56.1404 20.4535C55.004 17.1246 51.379 7.83168 51.379 7.83168H47.9058C46.6486 7.83168 45.6245 8.95414 45.6213 10.3321V27.0665H49.861V14.2094C50.3795 15.6526 50.8712 17.0605 51.3341 18.4149C52.323 21.3088 54.5561 27.0718 54.5561 27.0718H57.5344C57.5344 27.0718 59.8424 20.1735 61.7602 15.1309V27.0718H66.1539V7.83168H62.6443Z" fill="#DFDFDF"/>
<path fill-rule="evenodd" clip-rule="evenodd" d="M173.864 11.2204C172.778 10.6431 171.347 10.1193 169.916 10.1193C167.853 10.1193 166.733 11.0269 166.733 12.1558C166.733 13.4226 168.446 14.3836 171.312 16.1731C174.596 18.2374 176.344 19.8602 176.344 22.228C176.344 24.6504 173.408 27.4566 167.886 27.4566C165.336 27.4566 162.505 26.8515 160.689 25.5292L162.47 23.3281C163.763 24.07 165.268 24.8664 167.469 24.8664C169.496 24.8664 171.277 24.0144 171.277 22.1992C171.277 20.0804 167.993 18.6768 166.034 17.4645C163.66 15.9508 161.668 14.7685 161.668 12.2082C161.668 9.62115 164.987 7.53015 169.425 7.53015C172.221 7.53015 174.457 8.32871 175.609 9.20957L173.864 11.2204ZM189.911 11.2204C188.827 10.6431 187.394 10.1193 185.963 10.1193C183.902 10.1193 182.782 11.0269 182.782 12.1558C182.782 13.4226 184.497 14.3836 187.361 16.1731C190.645 18.2374 192.393 19.8602 192.393 22.228C192.393 24.6504 189.457 27.4566 183.937 27.4566C181.385 27.4566 178.554 26.8515 176.738 25.5292L178.521 23.3281C179.814 24.07 181.315 24.8664 183.518 24.8664C185.544 24.8664 187.326 24.0144 187.326 22.1992C187.326 20.0804 184.042 18.6768 182.085 17.4645C179.709 15.9508 177.717 14.7685 177.717 12.2082C177.717 9.62115 181.036 7.53015 185.474 7.53015C188.27 7.53015 190.506 8.32871 191.658 9.20957L189.911 11.2204ZM133.702 7.86369H129.658C127.958 7.884 126.041 9.7783 126.019 11.725L126.017 11.7271V27.1263H130.942V10.4496H133.145C136.045 10.4496 137.686 11.5785 137.686 13.5594C137.686 16.1464 135.45 17.2742 133.11 17.3854L132.026 17.4667V19.8602H133.178C139.049 19.8602 142.613 16.6692 142.613 13.4226C142.613 9.67994 139.224 7.86369 133.702 7.86369Z" fill="#AEAEAE"/>
<path fill-rule="evenodd" clip-rule="evenodd" d="M102.108 7.86267H101.745C99.8963 7.87657 98.3302 9.04713 98.2885 11.3915L98.2864 11.4567H104.82V27.1263H109.326V11.4556H115.408V7.86267H102.108Z" fill="#DFDFDF"/>
<path fill-rule="evenodd" clip-rule="evenodd" d="M152.775 25.2481C151.389 26.3385 149.7 27.4984 147.973 27.4984C145.046 27.4984 142.607 25.2481 142.607 21.7962C142.607 18.2311 145.196 16.2053 149.549 14.9663L153.978 13.6525C153.715 11.926 152.175 10.8399 150.562 10.8399C148.424 10.8399 146.923 11.6256 145.61 12.7524L143.997 10.3888C146.322 8.47524 148.611 7.83704 151.2 7.83704C154.652 7.83704 158.892 8.96378 158.892 14.8177V22.4719C158.892 23.9717 159.078 25.7366 159.679 27.0472H154.39C154.012 26.4101 153.902 25.3229 153.902 24.3084L152.775 25.2481ZM151.2 17.068C148.76 17.8195 147.522 19.2445 147.522 21.3836C147.522 23.0342 148.574 24.1598 149.772 24.1598C151.762 24.1598 154.351 21.6829 153.978 16.1679L151.2 17.068Z" fill="#AEAEAE"/>
<path fill-rule="evenodd" clip-rule="evenodd" d="M194.666 7.27469V4.40439H193.645V4.08582H196.131V4.40439H195.106V7.27469H194.666ZM200 7.27469H199.557V4.67912H199.549C199.422 5.05221 198.697 6.46117 198.269 7.27469H198.092C197.695 6.4601 197.033 5.0971 196.911 4.67912H196.902V7.27469H196.539V4.08688H197.01C197.422 4.93354 197.831 5.78555 198.235 6.68352C198.686 5.78555 199.137 4.93461 199.584 4.08688H200V7.27469Z" fill="#B3B3B3"/>
</svg>
