<svg width="150" height="37" viewBox="0 0 150 37" fill="none" xmlns="http://www.w3.org/2000/svg">
<path fill-rule="evenodd" clip-rule="evenodd" d="M0 13.8027C0 20.8767 5.75505 26.6317 12.829 26.6317C19.9029 26.6317 25.658 20.8767 25.658 13.8027C25.658 6.7288 19.9029 0.973755 12.829 0.973755C5.75505 0.973755 0 6.7288 0 13.8027ZM2.44136 13.8027C2.44136 8.07416 7.1012 3.41432 12.8298 3.41432C18.5584 3.41432 23.2182 8.07416 23.2182 13.8027C23.2182 19.5305 18.5584 24.1904 12.8298 24.1904C7.1012 24.1904 2.44136 19.5305 2.44136 13.8027Z" fill="#A0B0DA"/>
<path fill-rule="evenodd" clip-rule="evenodd" d="M21.7077 3.51209C21.7731 3.81945 21.7772 4.13668 21.7198 4.44563C21.6625 4.75458 21.5447 5.04918 21.3734 5.31258C21.202 5.57598 20.9804 5.803 20.7212 5.98066C20.462 6.15831 20.1703 6.28311 19.8629 6.34792C19.5556 6.41294 19.2386 6.4168 18.9299 6.3593C18.6211 6.30179 18.3268 6.18404 18.0636 6.01277C17.8003 5.84149 17.5734 5.62006 17.3958 5.36109C17.2181 5.10212 17.0933 4.8107 17.0282 4.50347C16.9632 4.19624 16.9594 3.87921 17.0169 3.57048C17.0744 3.26175 17.1921 2.96738 17.3634 2.70416C17.5347 2.44094 17.7561 2.21403 18.0151 2.03639C18.274 1.85875 18.5655 1.73386 18.8727 1.66884C19.4931 1.53747 20.1402 1.65785 20.6718 2.0035C21.2035 2.34915 21.5761 2.89179 21.7077 3.51209ZM1.04712 8.6105C1.04712 8.6105 17.5666 3.6989 19.5983 9.68566C21.6291 15.6748 4.80979 36.8165 4.80979 36.8165C4.80979 36.8165 23.2623 12.0348 12.5853 8.34271C9.63319 7.32046 1.04712 8.6105 1.04712 8.6105ZM63.9044 6.80974H61.0189V14.8314C61.0189 16.2393 60.679 18.6053 58.4003 18.6053C56.537 18.6053 55.7425 17.4275 55.7425 14.6686V6.80974H54.2368C53.1223 6.80974 52.2091 7.81354 52.1851 9.04826V15.197C52.1851 19.213 54.3065 21.3329 58.321 21.3329C61.9954 21.3329 64.2789 19.0374 64.2789 15.3389V6.80974H63.9044ZM75.3865 21.1853H67.1243V9.08674C67.1275 7.84 68.0455 6.82096 69.164 6.82096H70.511V18.5435H75.3857L75.3865 21.1853ZM91.8049 21.1853H88.4207V9.08674C88.4239 7.84 89.3411 6.82096 90.4612 6.82096H91.8065V18.5435L91.8049 21.1853ZM46.9833 6.77366C46.2881 6.77366 45.6668 7.22986 45.3998 7.93782C45.3629 8.00356 42.9913 13.8789 42.1053 16.2401C41.2531 13.7434 38.5343 6.77366 38.5343 6.77366H35.9294C34.9865 6.77366 34.2184 7.61551 34.216 8.64898V21.1998H37.3958V11.557C37.7846 12.6393 38.1535 13.6953 38.5006 14.7111C39.2422 16.8815 40.9171 21.2038 40.9171 21.2038H43.1508C43.1508 21.2038 44.8818 16.03 46.3202 12.2481V21.2038H49.6154V6.77366H46.9833Z" fill="#2360A5"/>
<path fill-rule="evenodd" clip-rule="evenodd" d="M130.398 9.31529C129.583 8.88234 128.51 8.48948 127.437 8.48948C125.889 8.48948 125.05 9.17017 125.05 10.0168C125.05 10.9669 126.334 11.6877 128.484 13.0299C130.947 14.5781 132.258 15.7951 132.258 17.571C132.258 19.3878 130.056 21.4924 125.914 21.4924C124.002 21.4924 121.879 21.0387 120.517 20.0469L121.853 18.396C122.822 18.9525 123.951 19.5498 125.602 19.5498C127.122 19.5498 128.457 18.9108 128.457 17.5494C128.457 15.9603 125.994 14.9076 124.526 13.9984C122.745 12.8631 121.251 11.9763 121.251 10.0561C121.251 8.11585 123.74 6.54761 127.069 6.54761C129.165 6.54761 130.843 7.14652 131.707 7.80717L130.398 9.31529ZM142.433 9.31529C141.62 8.88234 140.546 8.48948 139.472 8.48948C137.926 8.48948 137.087 9.17017 137.087 10.0168C137.087 10.9669 138.373 11.6877 140.521 13.0299C142.984 14.5781 144.295 15.7951 144.295 17.571C144.295 19.3878 142.093 21.4924 137.953 21.4924C136.039 21.4924 133.916 21.0387 132.554 20.0469L133.891 18.396C134.86 18.9525 135.986 19.5498 137.638 19.5498C139.158 19.5498 140.494 18.9108 140.494 17.5494C140.494 15.9603 138.031 14.9076 136.564 13.9984C134.782 12.8631 133.288 11.9763 133.288 10.0561C133.288 8.11585 135.777 6.54761 139.106 6.54761C141.202 6.54761 142.88 7.14652 143.744 7.80717L142.433 9.31529ZM100.276 6.79776H97.2433C95.9685 6.81299 94.5309 8.23372 94.5141 9.69372L94.5125 9.69533V21.2447H98.2062V8.73722H99.8586C102.034 8.73722 103.264 9.58388 103.264 11.0695C103.264 13.0098 101.587 13.8557 99.8321 13.939L99.0192 14V15.7951H99.8835C104.287 15.7951 106.96 13.4019 106.96 10.9669C106.96 8.15995 104.418 6.79776 100.276 6.79776Z" fill="#A0B0DA"/>
<path fill-rule="evenodd" clip-rule="evenodd" d="M76.5811 6.797H76.3085C74.9223 6.80742 73.7477 7.68534 73.7164 9.44361L73.7148 9.49252H78.6152V21.2447H81.9946V9.49172H86.5559V6.797H76.5811Z" fill="#2360A5"/>
<path fill-rule="evenodd" clip-rule="evenodd" d="M114.581 19.836C113.542 20.6538 112.275 21.5237 110.98 21.5237C108.785 21.5237 106.955 19.836 106.955 17.2471C106.955 14.5732 108.897 13.0539 112.162 12.1247L115.483 11.1393C115.286 9.84445 114.132 9.02986 112.922 9.02986C111.318 9.02986 110.193 9.61915 109.207 10.4642L107.998 8.69152C109.741 7.25636 111.459 6.77771 113.4 6.77771C115.989 6.77771 119.169 7.62277 119.169 12.0132V17.7538C119.169 18.8787 119.309 20.2024 119.759 21.1854H115.793C115.509 20.7075 115.427 19.8921 115.427 19.1313L114.581 19.836ZM113.4 13.7009C111.57 14.2646 110.642 15.3333 110.642 16.9376C110.642 18.1756 111.431 19.0198 112.329 19.0198C113.821 19.0198 115.763 17.1621 115.483 13.0258L113.4 13.7009Z" fill="#A0B0DA"/>
<path fill-rule="evenodd" clip-rule="evenodd" d="M145.999 6.35601V4.20328H145.233V3.96436H147.098V4.20328H146.329V6.35601H145.999ZM150 6.35601H149.668V4.40933H149.662C149.566 4.68915 149.023 5.74587 148.702 6.35601H148.569C148.271 5.74507 147.775 4.72282 147.683 4.40933H147.676V6.35601H147.404V3.96516H147.757C148.066 4.60015 148.373 5.23916 148.676 5.91264C149.014 5.23916 149.353 4.60095 149.688 3.96516H150V6.35601Z" fill="black"/>
</svg>
