<svg width="150" height="36" viewBox="0 0 150 36" fill="none" xmlns="http://www.w3.org/2000/svg">
<g clip-path="url(#clip0_285_2326)">
<path d="M41.3818 24.0543V12.1153C41.3818 11.5082 41.8739 10.999 42.519 10.999C43.164 10.999 43.676 11.5082 43.676 12.1153V22.925H49.2619C49.8604 22.925 50.399 23.4277 50.399 24.0609C50.399 24.694 49.8604 25.1771 49.2619 25.1771H42.519C41.8806 25.1771 41.3818 24.6679 41.3818 24.0609V24.0543Z" fill="#1066A6"/>
<path d="M52.6134 12.1084C52.6134 11.4818 53.1055 10.9922 53.7439 10.9922C54.3823 10.9922 54.9009 11.4752 54.9009 12.1084V24.0475C54.9009 24.6741 54.3623 25.1637 53.7439 25.1637C53.1254 25.1637 52.6134 24.6807 52.6134 24.0475V12.1084Z" fill="#1066A6"/>
<path d="M57.501 17.8791C57.5209 13.8711 60.9456 10.6138 65.0685 10.5942C66.8839 10.5942 68.533 11.1817 69.8297 12.1739C70.3218 12.5786 70.4083 13.2902 70.0359 13.7928C69.6236 14.2954 68.8589 14.3803 68.3867 14.0147C67.4824 13.2836 66.3452 12.8985 65.0685 12.8985C63.6454 12.8985 62.3287 13.4664 61.3579 14.3542C60.4269 15.2876 59.855 16.5018 59.855 17.8791C59.855 19.2564 60.4335 20.5097 61.3579 21.404C62.3287 22.2918 63.6454 22.8597 65.0685 22.8597C66.3452 22.8597 67.4624 22.4746 68.3867 21.7435C68.8589 21.3975 69.6236 21.4824 70.0359 21.9654C70.4083 22.4746 70.3218 23.1991 69.8297 23.5843C68.533 24.5765 66.8839 25.164 65.0685 25.164C60.9456 25.164 57.5209 21.9067 57.501 17.8791Z" fill="#1066A6"/>
<path d="M73.5603 12.1084C73.5603 11.4818 74.0524 10.9922 74.6974 10.9922C75.3425 10.9922 75.8545 11.4752 75.8545 12.1084V24.0475C75.8545 24.6741 75.3159 25.1637 74.6974 25.1637C74.079 25.1637 73.5603 24.6807 73.5603 24.0475V12.1084Z" fill="#1066A6"/>
<path d="M87.904 13.2442H84.6256V24.054C84.6256 24.6807 84.1335 25.1702 83.4885 25.1702C82.8434 25.1702 82.358 24.6872 82.358 24.054V13.2442H79.0996C78.4612 13.2442 77.9691 12.7155 77.9691 12.1084C77.9691 11.5013 78.4612 10.9922 79.0996 10.9922H87.904C88.5224 10.9922 89.0411 11.4752 89.0411 12.1084C89.0411 12.7416 88.5224 13.2442 87.904 13.2442Z" fill="#1066A6"/>
<path d="M97.227 21.822H92.2197L91.2089 24.4526C91.0227 24.8965 90.5905 25.1576 90.1383 25.1576C89.992 25.1576 89.8723 25.138 89.746 25.0989C89.1475 24.8769 88.8615 24.2307 89.0677 23.6432L93.6228 11.7237C93.809 11.2798 94.2612 10.9926 94.7134 11.0187C95.1855 10.9992 95.6178 11.2798 95.804 11.7237L100.359 23.6432C100.565 24.2307 100.279 24.8769 99.6808 25.0989C99.5744 25.138 99.4347 25.1576 99.2885 25.1576C98.8363 25.1576 98.404 24.8965 98.2378 24.4526L97.227 21.822ZM96.3825 19.5961L94.7134 15.2421L93.0443 19.5961H96.3825Z" fill="#1066A6"/>
<path d="M107.142 10.751H103.059C102.653 10.751 102.314 11.0839 102.314 11.4821V24.681C102.314 25.0792 102.653 25.4121 103.059 25.4121C103.465 25.4121 103.824 25.0857 103.824 24.681V19.3544L107.142 19.3153C109.542 19.3153 111.497 17.3961 111.497 15.0462C111.497 12.6962 109.542 10.751 107.142 10.751ZM110.001 15.0462C110.001 16.5867 108.718 17.8596 107.135 17.8792H103.817V12.2393H107.135C108.711 12.2393 110.001 13.4991 110.001 15.0527V15.0462Z" fill="#4397D3"/>
<path d="M122.523 11.1167L118.187 16.9394L113.885 11.1297C113.672 10.7968 113.12 10.7446 112.827 10.9796C112.515 11.195 112.435 11.6585 112.668 12.011L117.462 18.4407V24.6746C117.462 25.0728 117.802 25.4057 118.207 25.4057C118.613 25.4057 118.952 25.0859 118.952 24.6746V18.4016L123.727 12.011C123.853 11.8413 123.899 11.6259 123.86 11.4235C123.82 11.2342 123.713 11.071 123.58 10.9927C123.254 10.7316 122.716 10.8099 122.523 11.1167Z" fill="#4397D3"/>
<path d="M137.671 10.973L137.618 10.9273C137.279 10.7184 136.774 10.8164 136.581 11.1101L131.666 17.814L126.732 11.1036C126.5 10.7903 126.067 10.6858 125.675 10.9339L125.542 11.0318V11.0514C125.409 11.1819 125.336 11.3582 125.336 11.5475V24.6615C125.336 25.0662 125.682 25.3926 126.101 25.3926C126.519 25.3926 126.845 25.0597 126.845 24.6615V13.7799L131.001 19.4263C131.141 19.6483 131.361 19.7658 131.686 19.7658C131.946 19.7658 132.178 19.6417 132.298 19.4394L136.468 13.7603V24.6615C136.468 25.0728 136.793 25.3926 137.212 25.3926C137.631 25.3926 137.957 25.0597 137.957 24.6615V11.5475C137.957 11.443 137.917 11.3125 137.831 11.1493C137.784 11.0775 137.738 11.0318 137.665 10.96L137.671 10.973Z" fill="#4397D3"/>
<path d="M149.255 23.9303H142.599V18.8322H148.391C148.796 18.8322 149.136 18.4993 149.136 18.1011C149.136 17.7029 148.803 17.3504 148.391 17.3504H142.599V12.2328H149.255C149.674 12.2328 150 11.9064 150 11.4821C150 11.0578 149.674 10.751 149.255 10.751H141.834C141.428 10.751 141.089 11.0839 141.089 11.4821V24.681C141.089 25.0661 141.382 25.3794 141.774 25.4121H149.255C149.674 25.4121 150 25.0922 150 24.681C150 24.2697 149.681 23.9303 149.255 23.9303Z" fill="#4397D3"/>
<path d="M23.6068 17.7552C23.1081 15.6337 21.4058 13.9561 19.2446 13.46V17.7552H23.6068Z" fill="#96D6F7"/>
<path d="M36.687 17.122C36.687 7.66346 28.8802 0 19.2446 0V10.5422C23.015 11.1166 26.0008 14.0475 26.5727 17.7552H36.6737C36.6804 17.5463 36.687 17.3374 36.687 17.122Z" fill="#96D6F7"/>
<path d="M17.9013 13.2969C14.6695 13.2969 12.0362 15.8753 12.0362 19.0543C12.0362 19.0543 12.0362 19.0608 12.0362 19.0673H17.9013V13.3034V13.2969Z" fill="#6CBCEA"/>
<path d="M9.13018 19.0542C9.13018 14.3086 13.0669 10.4442 17.9013 10.4442V4.49756C9.99466 4.49756 3.59088 10.7902 3.59088 18.5451C3.59088 18.7213 3.59088 18.891 3.60418 19.0608H9.13018C9.13018 19.0608 9.13018 19.0542 9.13018 19.0477V19.0542Z" fill="#6CBCEA"/>
<path d="M12.0362 19.0605C12.0362 22.2265 14.6695 24.8049 17.9013 24.8049V19.0605H12.0362Z" fill="#4397D3"/>
<path d="M17.9013 27.6643C13.0669 27.6643 9.13685 23.8065 9.1302 19.0674H0C0.345791 28.4803 8.23248 36.0066 17.9013 36.0066V27.6708V27.6643Z" fill="#4397D3"/>
<path d="M17.9013 24.8049C19.5172 24.8049 20.9735 24.1586 22.0375 23.1207L17.9013 19.0605V24.8049Z" fill="#1066A6"/>
<path d="M17.9013 27.6642V33.1996C21.3193 33.1996 24.4647 32.0704 26.985 30.1773L22.8687 26.1367C21.4523 27.0963 19.7433 27.6577 17.9013 27.6642Z" fill="#1066A6"/>
<path d="M30.9948 29.8054C33.5949 26.9267 35.2241 23.1798 35.377 19.0674H26.6724C26.6724 20.9017 26.074 22.5988 25.0765 23.9958L31.0015 29.8119L30.9948 29.8054Z" fill="#D52B1E"/>
<path d="M22.0375 23.1207C23.1015 22.0828 23.7598 20.6468 23.7598 19.0605H17.9013L22.0375 23.1207Z" fill="#D52B1E"/>
</g>
<defs>
<clipPath id="clip0_285_2326">
<rect width="150" height="36" fill="white"/>
</clipPath>
</defs>
</svg>
